<?xml version="1.0" standalone="no"?>
<!DOCTYPE svg PUBLIC "-//W3C//DTD SVG 20010904//EN"
 "http://www.w3.org/TR/2001/REC-SVG-20010904/DTD/svg10.dtd">
<svg version="1.0" xmlns="http://www.w3.org/2000/svg"
 width="871.000000pt" height="877.000000pt" viewBox="0 0 871.000000 877.000000"
 preserveAspectRatio="xMidYMid meet">

<g transform="translate(0.000000,877.000000) scale(0.100000,-0.100000)"
fill="#000000" stroke="none">
<path d="M0 8547 l0 -224 70 -12 c71 -13 235 -86 380 -170 88 -51 128 -61 142
-38 6 12 22 17 51 17 51 0 55 -3 102 -64 34 -45 37 -55 42 -130 3 -64 11 -97
38 -156 18 -41 41 -96 50 -122 17 -50 28 -57 54 -35 27 22 70 37 76 27 4 -6
25 -10 47 -10 30 0 46 6 62 24 42 47 96 32 112 -31 4 -13 10 -23 14 -23 5 0
16 -7 24 -16 15 -14 19 -13 46 6 45 32 95 99 122 162 13 31 38 73 56 92 26 29
40 36 70 36 38 0 82 -31 82 -57 0 -6 6 -13 13 -16 9 -3 11 -45 9 -176 -3 -201
6 -230 65 -231 26 0 143 38 157 51 32 29 90 -5 117 -68 19 -45 20 -45 57 -40
37 6 79 43 128 111 26 36 50 30 83 -24 18 -28 39 -45 77 -62 40 -17 58 -33 75
-63 12 -22 31 -50 42 -62 37 -41 108 -22 121 32 20 79 118 235 148 235 5 0 18
9 29 19 11 10 41 24 66 30 40 10 48 10 65 -6 45 -40 50 -65 46 -243 -2 -157
-1 -171 18 -197 34 -45 100 -55 136 -20 35 33 108 88 108 81 0 -4 5 -3 12 4
14 14 64 16 73 2 3 -5 31 -26 61 -46 34 -23 62 -51 75 -76 24 -46 53 -78 74
-78 7 0 18 -7 23 -16 8 -15 10 -14 16 1 6 17 7 17 19 1 10 -14 11 -2 6 61 -3
43 -11 91 -18 106 -6 16 -10 49 -10 75 l1 47 8 -51 c4 -29 11 -58 16 -65 17
-28 31 67 17 119 -4 17 -11 22 -24 19 -23 -6 -26 11 -4 19 9 4 28 -6 47 -25
17 -17 38 -31 46 -31 8 0 12 -6 8 -15 -3 -9 0 -15 8 -15 12 0 39 -51 68 -132
17 -46 31 -48 42 -6 8 31 5 40 -27 84 -20 27 -45 59 -56 72 -23 25 -28 52 -8
52 6 0 57 -31 112 -68 l100 -68 0 -44 c0 -37 4 -45 26 -54 47 -20 57 -38 52
-89 -3 -27 0 -59 7 -77 13 -32 58 -70 83 -70 19 0 25 -17 22 -63 -1 -26 3 -41
14 -47 14 -8 14 -10 -1 -27 -9 -10 -21 -30 -26 -43 -9 -25 -9 -25 -16 8 -9 39
-26 33 -26 -9 0 -33 20 -79 44 -98 13 -11 14 -8 9 22 -5 34 -4 36 28 39 20 2
47 -4 64 -13 17 -10 48 -20 70 -23 35 -6 37 -5 17 6 -15 7 -22 18 -19 29 5 19
-11 29 -48 29 -35 0 -39 17 -8 33 30 15 91 14 132 -2 14 -6 46 -15 71 -22 l45
-12 -34 -9 -34 -9 39 -24 c27 -17 54 -24 87 -25 34 0 47 -4 44 -12 -3 -9 -32
-13 -100 -13 -54 0 -97 -3 -97 -7 0 -4 26 -14 58 -24 52 -15 55 -17 35 -27
-33 -15 -28 -25 18 -37 38 -11 40 -12 23 -25 -11 -8 -27 -15 -36 -15 -79 -1
-54 -60 26 -60 19 0 46 -4 61 -10 24 -9 26 -14 24 -59 -2 -45 -5 -50 -31 -55
-15 -3 -28 -10 -28 -16 0 -7 9 -9 23 -5 21 6 22 6 2 -10 -18 -14 -20 -14 -32
7 -7 13 -12 18 -13 11 0 -6 -9 -9 -20 -6 -12 3 -31 -5 -51 -22 -19 -15 -40
-24 -50 -22 -10 3 -19 1 -21 -4 -4 -12 -76 9 -85 25 -5 7 -39 25 -77 40 -38
15 -79 34 -90 42 -11 8 -26 14 -34 14 -22 0 31 -50 64 -59 l29 -9 -27 -1 c-32
-1 -36 -15 -10 -30 14 -9 14 -12 3 -20 -10 -6 -6 -13 18 -27 17 -10 31 -22 31
-26 0 -4 8 -8 18 -8 10 0 46 -13 80 -30 34 -16 68 -30 76 -30 7 0 21 -9 31
-20 10 -11 26 -22 36 -25 23 -8 24 -23 4 -45 -12 -14 -12 -21 3 -62 9 -26 13
-51 8 -55 -4 -4 -37 -7 -72 -6 -35 2 -64 -1 -64 -6 0 -5 -23 -16 -52 -26 -57
-18 -82 -33 -85 -52 -4 -16 2 -16 27 -1 23 15 53 2 58 -26 5 -26 -25 -66 -51
-67 -21 -1 -20 -1 3 -8 24 -7 24 -7 3 -13 -26 -7 -67 18 -59 37 2 7 -4 26 -14
43 -13 20 -15 33 -8 40 7 7 0 15 -21 27 -117 60 -285 200 -327 271 -29 50 -28
59 10 150 26 62 56 236 56 323 0 44 -23 130 -52 197 -9 22 -19 30 -34 29 -16
-1 -30 12 -53 46 -23 35 -36 47 -49 43 -13 -5 -14 -4 -3 4 10 7 11 14 2 28
-10 18 -10 18 -11 1 0 -10 -4 -16 -9 -13 -5 3 -8 14 -6 24 1 9 0 11 -2 5 -6
-17 -10 -16 -33 7 -19 19 -23 19 -49 6 -16 -9 -42 -29 -57 -46 -31 -34 -83
-60 -118 -60 -12 0 -26 -4 -31 -9 -17 -14 -93 -22 -101 -10 -4 8 -31 9 -84 5
-51 -5 -80 -4 -85 3 -10 17 -74 13 -94 -6 -30 -29 -32 -55 -11 -138 27 -106
26 -133 -4 -145 -13 -5 -27 -13 -30 -19 -4 -6 -16 -6 -36 0 -23 8 -38 29 -74
101 -25 50 -46 97 -46 104 0 8 -8 14 -17 14 -18 0 -73 101 -73 133 0 16 -62
69 -93 80 -11 4 -38 -2 -64 -13 -62 -27 -104 -26 -133 5 -30 32 -64 31 -115 0
-22 -14 -43 -25 -47 -25 -3 0 -18 20 -32 44 -14 24 -44 59 -67 77 -40 31 -43
32 -83 20 -22 -7 -53 -15 -68 -18 -15 -3 -30 -14 -34 -25 -6 -19 -6 -19 -20
-1 -7 10 -14 13 -14 6 0 -6 -8 -10 -17 -8 -10 2 -27 4 -37 4 -11 1 -39 21 -63
46 -23 25 -49 45 -56 45 -26 0 -50 -39 -55 -90 -5 -57 13 -111 60 -171 33 -43
37 -98 10 -121 -9 -9 -33 -21 -53 -28 -55 -20 -88 -1 -150 83 -29 40 -56 74
-60 77 -8 7 -25 59 -44 143 -17 74 -60 143 -108 172 -27 16 -28 16 -58 -14
-17 -17 -39 -36 -49 -41 -30 -16 -93 -11 -120 9 l-24 19 -16 -46 c-19 -57 -35
-63 -53 -20 -13 30 -31 42 -142 96 -137 67 -229 102 -270 102 -23 0 -25 -3
-19 -27 9 -40 40 -88 68 -106 13 -9 50 -23 82 -33 32 -9 92 -32 132 -50 39
-19 105 -50 146 -69 71 -33 127 -75 139 -106 3 -8 6 -2 6 14 1 37 51 67 113
67 121 0 196 -124 122 -201 -44 -46 -124 -48 -156 -4 -4 5 -8 7 -8 3 0 -14
-38 29 -45 51 -10 32 -21 25 -21 -13 0 -37 -18 -66 -40 -66 -8 0 -14 6 -14 13
0 38 -175 133 -330 178 -96 28 -104 27 -97 -17 11 -64 49 -101 130 -125 150
-46 361 -144 399 -186 9 -10 20 -34 25 -53 13 -50 46 -53 74 -6 36 62 96 40
119 -43 11 -40 23 -51 35 -31 4 6 10 8 15 5 5 -3 20 7 34 22 22 24 28 25 50
15 15 -7 36 -33 51 -64 25 -50 25 -56 14 -117 -22 -117 5 -269 54 -310 20 -16
23 -71 4 -71 -23 0 -67 -124 -67 -188 1 -60 13 -138 24 -149 3 -4 51 1 106 10
72 12 107 14 127 6 30 -11 43 0 43 39 0 26 12 28 34 7 21 -22 88 -19 118 5 32
24 38 64 26 153 -19 143 54 213 159 151 67 -39 90 -102 59 -162 -14 -27 -20
-71 -17 -128 2 -44 47 -67 96 -49 19 6 37 14 40 17 3 3 22 1 43 -5 33 -9 43
-20 87 -96 28 -47 50 -90 50 -96 0 -5 4 -15 8 -21 4 -7 -4 -36 -17 -65 -30
-70 -47 -145 -44 -194 1 -22 1 -97 0 -167 l-2 -126 -36 -41 c-48 -53 -87 -61
-154 -32 -39 17 -53 19 -68 10 -18 -11 -42 -91 -42 -139 0 -63 -90 -127 -145
-102 -29 13 -42 55 -50 162 -9 102 -19 120 -67 120 -29 0 -38 4 -38 16 0 13
-6 11 -24 -9 l-25 -27 -5 43 c-3 23 -7 53 -8 67 -3 21 -7 25 -33 22 -17 -2
-51 8 -80 23 -27 13 -55 25 -60 25 -6 0 -26 10 -45 23 -20 13 -47 22 -62 21
-26 -3 -28 0 -28 31 0 26 -6 39 -25 51 -56 37 -367 123 -400 110 -33 -12 -8
-107 38 -143 15 -11 66 -30 114 -42 48 -12 132 -35 186 -52 54 -17 104 -28
112 -25 8 3 15 2 15 -2 0 -4 14 -16 30 -27 34 -22 45 -51 91 -240 34 -140 36
-220 10 -296 -21 -61 -80 -168 -115 -210 -13 -15 -26 -34 -28 -40 -2 -7 -10
-9 -17 -5 -8 6 -9 11 -1 20 5 7 19 40 31 72 31 92 28 237 -9 385 -32 124 -64
210 -74 194 -3 -6 7 -62 23 -125 52 -201 47 -327 -15 -448 -26 -48 -101 -130
-112 -120 -3 3 8 30 25 59 16 30 37 83 46 119 33 127 1 372 -67 519 -32 70
-33 28 -2 -96 61 -243 35 -421 -80 -539 -38 -39 -66 -55 -66 -38 0 3 17 44 37
92 33 78 37 99 41 194 5 117 -11 217 -55 350 -26 80 -64 131 -84 111 -7 -7 -1
-47 21 -134 57 -226 50 -369 -27 -496 -48 -82 -68 -100 -88 -83 -8 7 -19 10
-22 6 -4 -4 -1 -11 7 -16 12 -8 10 -10 -7 -10 -13 0 -22 -5 -20 -11 1 -6 -6
-13 -16 -14 -13 -2 -17 1 -13 11 4 9 -2 14 -17 14 -15 0 -18 3 -9 8 7 5 29 49
49 98 33 78 37 101 41 193 5 114 -3 164 -50 318 -34 110 -64 160 -92 150 -19
-7 -19 -4 21 -162 37 -146 39 -320 5 -402 -33 -80 -103 -181 -133 -194 -15 -6
-26 -16 -23 -23 2 -6 -4 -12 -15 -12 -20 0 -19 17 4 46 17 23 72 140 85 183
16 50 16 206 0 282 -41 207 -97 315 -154 301 -33 -8 -33 -14 4 -161 67 -270
43 -428 -91 -591 -48 -58 -67 -70 -82 -55 -8 8 0 33 30 95 52 105 67 181 60
300 -5 93 -44 264 -78 343 -33 77 -119 104 -119 37 0 -14 14 -78 31 -142 41
-155 45 -293 10 -392 -29 -82 -97 -193 -151 -245 -32 -30 -39 -34 -29 -15 8
14 17 27 20 30 3 3 9 14 12 24 8 21 -18 70 -33 61 -8 -5 -52 37 -85 81 -13 18
-14 18 -20 2 -9 -22 -25 -24 -25 -3 0 8 -4 15 -10 15 -5 0 -10 -9 -10 -20 0
-15 -6 -19 -29 -17 -16 1 -27 6 -24 10 3 5 -11 24 -31 43 -34 33 -36 38 -40
117 -7 106 -6 101 -32 134 l-23 28 -1 -827 0 -826 97 4 c119 5 223 36 269 79
56 53 105 162 154 343 15 56 35 56 26 0 -4 -23 -11 -47 -15 -53 -5 -5 -12 -29
-16 -52 -9 -58 -52 -156 -98 -225 -53 -78 -153 -158 -200 -158 -13 0 -32 -9
-42 -20 -22 -24 -75 -40 -132 -40 l-43 0 0 -1410 0 -1410 4355 0 4355 0 0
4385 0 4385 -4355 0 -4355 0 0 -223z m6002 183 c18 -16 37 -30 42 -30 5 0 24
-11 42 -25 28 -21 43 -25 106 -25 40 0 104 -5 141 -10 60 -9 72 -8 106 10 22
10 45 25 52 32 23 22 68 38 74 28 4 -6 14 -10 24 -10 27 0 49 -55 52 -130 2
-36 9 -76 16 -90 15 -29 17 -60 4 -60 -5 0 -12 -11 -15 -25 -4 -14 -13 -25
-21 -25 -8 0 -15 -8 -15 -17 -1 -34 -24 -58 -58 -59 -26 -1 -33 3 -38 22 -3
13 -11 24 -18 24 -6 0 -22 18 -35 39 -24 39 -81 72 -172 100 -20 6 -57 25 -83
41 -55 36 -161 49 -230 30 -52 -14 -108 4 -170 55 -24 19 -48 35 -53 35 -6 0
-16 7 -23 15 -32 38 -130 0 -130 -51 0 -13 -4 -24 -9 -24 -5 0 -11 -9 -14 -20
-3 -10 -17 -22 -31 -26 -45 -11 -158 86 -205 176 -11 22 -21 43 -21 45 0 3
146 5 324 5 l325 0 33 -30z m1178 -242 c12 -16 16 -33 13 -55 -4 -22 1 -43 16
-68 21 -36 27 -81 13 -100 -4 -6 -20 -18 -35 -28 -15 -10 -25 -22 -22 -27 7
-11 -11 -22 -41 -26 -17 -1 -29 8 -49 39 -26 42 -63 67 -98 67 -10 0 -27 5
-38 11 -11 5 -32 12 -48 14 -30 3 -171 79 -183 98 -4 6 -2 17 4 24 8 10 7 13
-3 13 -29 1 39 28 86 34 35 5 61 3 85 -8 64 -26 190 -18 190 13 0 11 23 18 63
20 19 1 35 -7 47 -21z m265 -212 c6 -7 16 -11 23 -9 18 7 16 -53 -3 -61 -8 -3
-37 2 -64 11 -37 12 -50 21 -54 39 -2 12 1 28 7 34 14 14 77 4 91 -14z m61
-63 c-11 -11 -17 4 -9 23 7 18 8 18 11 1 2 -10 1 -21 -2 -24z m162 14 c15 -1
29 -12 39 -32 9 -16 20 -33 26 -36 19 -13 -5 -29 -43 -29 -33 0 -44 6 -80 47
-36 42 -39 48 -23 54 10 4 27 5 38 3 11 -3 31 -6 43 -7z m350 -158 c-9 -6 -14
-3 -17 9 -2 9 -11 22 -19 28 -14 10 -14 14 -3 28 7 9 17 13 22 10 5 -3 9 3 9
14 0 10 3 22 8 26 4 4 8 -18 10 -50 2 -39 -1 -60 -10 -65z m-3920 -271 c6 -6
29 -11 51 -10 21 1 52 -5 68 -13 15 -8 36 -15 46 -15 10 0 30 -6 45 -13 15 -8
41 -13 57 -12 17 1 41 -6 55 -15 22 -16 57 -24 141 -34 45 -5 83 -42 83 -82 0
-18 4 -34 9 -34 14 0 -3 -44 -25 -62 -11 -10 -15 -18 -9 -18 7 0 10 -23 10
-62 -1 -35 1 -76 2 -92 3 -20 -2 -32 -15 -40 -10 -6 -33 -23 -50 -38 -36 -33
-46 -35 -53 -9 -9 36 -30 31 -46 -10 -14 -35 -14 -42 -1 -69 29 -57 -25 -98
-60 -46 -14 23 -14 26 0 40 8 9 12 16 8 16 -3 0 -1 7 6 15 17 21 2 38 -30 32
-15 -3 -31 -2 -36 2 -23 21 -210 41 -234 25 -8 -5 -26 -14 -40 -21 l-25 -11
25 -1 c34 -2 70 -12 70 -20 0 -8 -119 -51 -140 -51 -6 0 -54 20 -106 45 -104
49 -112 62 -70 112 30 36 66 103 66 124 0 8 10 36 23 62 18 35 22 55 18 89 -9
68 2 154 23 177 11 12 31 21 45 21 14 0 35 7 45 15 24 18 29 18 44 3z m948
-706 c-12 -12 -26 13 -25 46 l0 37 15 -39 c8 -22 12 -41 10 -44z m-1093 -9
c-7 -2 -19 -2 -25 0 -7 3 -2 5 12 5 14 0 19 -2 13 -5z m505 -36 c2 -10 -3 -17
-12 -17 -10 0 -16 9 -16 21 0 24 23 21 28 -4z m3 -69 c1 -7 3 -23 4 -35 1 -12
9 -29 18 -38 9 -9 23 -39 32 -67 14 -47 13 -54 -4 -94 -23 -51 -60 -67 -91
-39 -15 13 -34 16 -103 13 -47 -2 -83 0 -80 5 2 4 -1 7 -6 7 -6 0 -11 9 -11
20 0 11 5 20 11 20 6 0 29 16 52 35 22 19 49 35 59 35 10 0 18 2 18 4 0 2 3
13 7 23 6 16 5 17 -12 3 -17 -14 -18 -14 -6 8 7 12 15 20 20 18 4 -3 16 9 26
27 34 60 63 84 66 55z m-71 -52 c0 -3 -4 -8 -10 -11 -5 -3 -10 -1 -10 4 0 6 5
11 10 11 6 0 10 -2 10 -4z m-1773 -336 c8 -22 9 -40 1 -60 -5 -17 -11 -30 -12
-30 0 0 -16 -4 -34 -9 -27 -8 -36 -6 -58 12 -36 32 -25 67 29 95 55 28 60 28
74 -8z m1868 -110 c3 -5 -1 -10 -9 -10 -9 0 -16 5 -16 10 0 6 4 10 9 10 6 0
13 -4 16 -10z m-2645 -88 c18 -14 24 -32 28 -76 4 -49 2 -60 -18 -81 -39 -42
-104 -28 -157 33 -18 20 -33 45 -33 55 0 23 19 58 39 74 25 20 115 16 141 -5z
m233 -63 c2 -2 15 -19 30 -37 31 -39 24 -67 -24 -95 -46 -26 -74 -22 -103 16
-38 50 -32 88 19 115 18 10 72 10 78 1z m1620 -297 c10 -20 35 -55 56 -77 43
-45 186 -160 246 -197 36 -23 75 -58 63 -58 -2 0 -31 5 -64 11 -152 27 -330
159 -375 275 -8 23 -6 31 18 56 14 15 29 28 32 28 3 0 14 -17 24 -38z m-142
-31 c-8 -14 -7 -20 4 -24 9 -4 12 -15 9 -33 -4 -23 -3 -25 10 -15 16 14 29 1
21 -22 -4 -8 8 -24 30 -41 33 -25 45 -46 27 -46 -4 0 -27 18 -51 40 -48 45
-55 48 -46 20 9 -27 1 -25 -32 8 -55 55 -57 67 -17 101 40 36 60 41 45 12z
m-1693 -138 l-3 -38 -17 32 c-10 18 -18 41 -18 52 0 11 8 27 18 37 16 17 17
16 20 -14 2 -17 2 -49 0 -69z m89 32 c14 -29 14 -39 4 -58 -12 -23 -49 -52
-57 -44 -9 9 -16 106 -10 131 6 23 9 25 27 16 11 -6 27 -27 36 -45z m2814 -38
c-10 -9 -11 -8 -5 6 3 10 9 15 12 12 3 -3 0 -11 -7 -18z m-1041 -58 c0 -18
-35 -5 -38 14 -3 16 -1 17 17 7 12 -6 21 -15 21 -21z m-90 -3 c14 -18 14 -18
-7 -6 -12 8 -19 18 -16 23 3 4 6 7 7 5 1 -2 8 -12 16 -22z m55 -36 c3 -5 1
-10 -4 -10 -6 0 -11 5 -11 10 0 6 2 10 4 10 3 0 8 -4 11 -10z m145 -46 c0 -2
-9 -4 -20 -4 -11 0 -20 4 -20 9 0 5 9 7 20 4 11 -3 20 -7 20 -9z m705 -21 c-3
-33 -17 -54 -32 -49 -8 3 -11 2 -8 -3 3 -5 1 -12 -4 -15 -5 -4 -9 7 -9 24 1
31 12 40 22 18 3 -7 3 -3 0 9 -3 15 0 23 13 26 10 3 19 5 19 6 1 0 0 -7 -1
-16z m-371 -108 c-4 -8 -11 -12 -16 -9 -6 4 -5 10 3 15 19 12 19 11 13 -6z
m197 -2 c13 -16 12 -17 -3 -4 -10 7 -18 15 -18 17 0 8 8 3 21 -13z m59 -24 c0
-11 -27 -12 -34 -1 -2 4 4 9 15 9 10 1 19 -2 19 -8z m-200 -38 c0 -17 -18 -21
-24 -6 -3 9 0 15 9 15 8 0 15 -4 15 -9z m310 -81 c-6 -11 -8 -26 -4 -32 4 -7
3 -8 -4 -4 -8 5 -12 -1 -12 -15 0 -26 -8 -22 -13 7 -1 10 -6 25 -11 32 -5 8
-4 18 2 24 6 6 8 17 5 24 -3 8 5 23 18 33 l24 19 3 -33 c2 -19 -2 -43 -8 -55z
m-1656 -5 c-7 -16 -24 -21 -24 -6 0 8 7 13 27 20 1 1 0 -6 -3 -14z m1426 -36
c0 -5 -4 -9 -10 -9 -5 0 -10 7 -10 16 0 8 5 12 10 9 6 -3 10 -10 10 -16z m118
9 c17 -17 15 -33 -3 -18 -12 10 -15 9 -15 -6 0 -16 -2 -17 -11 -4 -9 13 -10
13 -6 0 2 -10 14 -14 32 -13 27 2 28 1 12 -15 -13 -12 -21 -14 -34 -6 -29 18
-38 41 -24 58 16 19 33 20 49 4z m98 -109 c3 -5 18 -9 34 -9 23 0 37 -10 65
-46 37 -49 39 -56 29 -117 -5 -30 -15 -43 -52 -68 -42 -29 -47 -29 -96 -19
-28 6 -56 14 -61 18 -27 19 -74 91 -70 108 2 10 7 36 10 56 4 25 12 39 26 43
14 5 19 13 16 26 -6 21 3 25 19 9 8 -8 15 -6 23 4 12 14 47 11 57 -5z m-1711
-19 c-3 -5 -10 -10 -16 -10 -5 0 -9 5 -9 10 0 6 7 10 16 10 8 0 12 -4 9 -10z
m35 0 c0 -5 -2 -10 -4 -10 -3 0 -8 5 -11 10 -3 6 -1 10 4 10 6 0 11 -4 11 -10z
m-85 -10 c-3 -5 -21 -10 -38 -9 -31 1 -31 1 -7 9 36 11 52 11 45 0z m-111 -42
c-16 -12 -44 -35 -61 -52 -18 -16 -33 -25 -33 -19 0 16 90 93 108 93 9 0 3 -9
-14 -22z m-102 -110 c-7 -7 -12 -8 -12 -2 0 14 12 26 19 19 2 -3 -1 -11 -7
-17z m263 -48 c3 -5 1 -10 -4 -10 -6 0 -11 5 -11 10 0 6 2 10 4 10 3 0 8 -4
11 -10z m40 0 c-3 -5 -11 -10 -16 -10 -6 0 -7 5 -4 10 3 6 11 10 16 10 6 0 7
-4 4 -10z m73 3 c-10 -2 -28 -2 -40 0 -13 2 -5 4 17 4 22 1 32 -1 23 -4z
m-148 -13 c0 -5 -7 -10 -16 -10 -8 0 -12 5 -9 10 3 6 10 10 16 10 5 0 9 -4 9
-10z m-50 -16 c0 -3 -17 -12 -37 -20 -45 -19 -102 -81 -126 -137 -17 -42 -17
-42 -11 -7 9 49 27 80 67 118 42 38 107 67 107 46z m320 -184 c0 -5 -5 -10
-11 -10 -5 0 -7 5 -4 10 3 6 8 10 11 10 2 0 4 -4 4 -10z m-160 -20 c0 -5 -15
-10 -32 -9 -31 1 -32 1 -8 9 35 11 40 11 40 0z m37 4 c-3 -3 -12 -4 -19 -1 -8
3 -5 6 6 6 11 1 17 -2 13 -5z m-177 -21 c-1 -14 -160 -168 -160 -155 0 6 32
45 72 87 66 69 88 87 88 68z m190 -203 c-20 -13 -53 -13 -45 0 3 6 18 10 33
10 21 0 24 -2 12 -10z m-65 -18 c-17 -14 -65 -32 -65 -24 0 4 10 12 23 18 26
14 55 18 42 6z m-75 -35 c0 -15 -50 -70 -58 -63 -3 3 2 14 10 23 8 10 18 26
21 36 7 20 27 23 27 4z m-120 -83 c0 -3 -7 -12 -15 -21 -20 -19 -32 -9 -15 12
12 15 30 20 30 9z m-23 -166 c-2 -13 -4 -3 -4 22 0 25 2 35 4 23 2 -13 2 -33
0 -45z m248 22 c-25 -22 -56 -40 -67 -40 -17 0 -13 6 20 29 22 16 43 34 47 40
3 6 15 11 26 11 16 0 10 -9 -26 -40z m-162 -83 c-14 -15 -22 -42 -27 -89 -11
-112 -27 -127 -20 -18 7 95 15 120 40 120 8 0 14 5 14 12 0 6 3 8 7 5 3 -4 -3
-17 -14 -30z m681 -19 c12 -6 25 -17 29 -24 4 -8 23 -14 41 -14 18 0 62 -15
97 -33 57 -30 64 -37 64 -63 0 -29 -1 -29 -50 -26 -27 1 -57 5 -65 9 -8 3 -25
5 -37 4 -12 -1 -30 2 -39 7 -14 8 -14 10 0 25 9 8 16 20 16 26 0 14 -67 15
-75 1 -4 -7 -113 -8 -167 -1 -16 2 -38 34 -38 56 0 48 25 58 119 51 47 -4 94
-12 105 -18z m-404 -92 c0 -6 -65 -43 -89 -51 -41 -13 -21 13 27 33 47 21 62
26 62 18z m-180 -74 c0 -5 -11 -19 -25 -32 -15 -14 -25 -35 -25 -50 0 -15 -9
-56 -20 -90 -11 -34 -20 -77 -21 -94 -1 -30 -1 -30 -10 7 -7 29 -4 51 10 95
10 31 22 73 26 92 4 19 16 45 28 58 21 22 37 29 37 14z m623 -1 c49 -5 93 -13
99 -19 6 -6 12 -25 14 -42 2 -17 6 -36 10 -41 3 -6 0 -16 -6 -24 -9 -11 -9
-15 -1 -15 6 0 11 5 11 11 0 20 45 -2 78 -38 18 -20 31 -38 29 -40 -2 -2 -33
12 -68 31 -50 27 -81 36 -143 41 -56 6 -77 4 -72 -3 4 -6 22 -14 41 -17 19 -3
50 -7 68 -10 17 -3 38 -9 45 -14 16 -10 26 -98 12 -106 -6 -4 -8 -10 -6 -14 7
-10 -234 17 -263 30 -23 10 -200 5 -243 -7 -10 -3 -28 5 -43 20 -20 20 -24 31
-19 53 4 16 13 31 20 36 10 6 10 13 -4 36 -25 45 -3 68 104 106 98 35 175 41
337 26z m2093 -182 c90 -46 145 -152 147 -279 0 -82 -19 -142 -59 -181 l-33
-32 19 51 c21 54 25 145 10 192 -8 24 -8 24 -9 3 -1 -25 -21 -32 -21 -8 0 9
-6 12 -15 9 -11 -5 -14 -2 -9 12 6 16 5 17 -7 7 -7 -7 -22 -13 -33 -13 -15 0
-26 -12 -38 -41 l-17 -41 29 -11 c23 -9 30 -18 30 -39 0 -15 -5 -28 -10 -28
-7 0 -8 -13 -4 -37 6 -34 6 -36 -16 -30 -13 3 -32 1 -42 -4 -13 -7 -29 -6 -53
2 -28 11 -35 18 -35 40 0 15 -4 31 -10 34 -5 3 -10 -1 -10 -10 0 -13 -3 -13
-22 4 -11 11 -25 18 -29 15 -8 -4 -49 75 -49 94 0 5 -11 29 -25 53 -13 24 -29
53 -34 64 -5 11 -21 32 -35 47 l-26 27 22 15 c12 9 45 23 73 32 27 9 58 25 67
35 49 56 154 64 244 18z m-2616 -15 c0 -3 -11 -19 -25 -36 -14 -16 -25 -35
-25 -42 0 -8 -8 -24 -19 -37 -26 -34 -53 -122 -55 -179 -1 -61 -16 -41 -16 24
0 55 59 216 93 254 19 20 47 30 47 16z m385 -109 c28 0 70 -8 95 -17 25 -9 77
-26 116 -38 79 -23 100 -46 81 -88 -9 -20 -17 -23 -46 -19 -38 4 -122 24 -156
37 -11 4 -60 13 -110 19 -105 14 -135 30 -135 69 0 42 18 54 65 46 22 -4 63
-8 90 -9z m320 -15 c0 -18 -33 -26 -48 -11 -9 9 -8 14 3 21 21 14 45 8 45 -10z
m-555 -35 c0 -2 -25 -37 -55 -77 -84 -112 -115 -193 -115 -299 0 -46 -15 -52
-23 -10 -8 39 17 171 41 213 22 42 110 161 126 170 13 9 26 10 26 3z m695
-115 c12 -19 -12 -10 -31 11 -19 22 -19 22 3 10 12 -6 25 -16 28 -21z m-450
-20 c-9 -14 -66 -43 -72 -36 -3 2 12 14 34 25 45 24 46 24 38 11z m-3265 -50
c0 -5 -7 -10 -16 -10 -8 0 -12 5 -9 10 3 6 10 10 16 10 5 0 9 -4 9 -10z m3165
-15 c-39 -28 -75 -65 -75 -75 0 -6 -7 -13 -15 -16 -8 -4 -15 -11 -15 -17 0 -6
-6 -18 -14 -26 -8 -9 -16 -25 -18 -36 -1 -11 -6 -23 -10 -26 -14 -10 -50 -164
-51 -221 -2 -65 -12 -74 -25 -24 -17 59 30 237 83 319 34 54 99 121 125 130
28 10 35 6 15 -8z m735 -16 c0 -18 -18 -9 -23 12 -4 16 -3 18 9 8 8 -6 14 -15
14 -20z m-674 -254 c-58 -103 -128 -361 -120 -437 4 -36 -7 -50 -21 -28 -4 6
-11 8 -16 5 -5 -4 -9 -2 -9 4 0 5 5 13 10 16 6 3 10 18 10 33 0 107 91 382
147 444 27 30 26 13 -1 -37z m244 -59 c0 -2 -15 -36 -34 -77 -19 -41 -46 -114
-60 -164 -15 -49 -36 -120 -48 -157 -11 -37 -26 -105 -33 -150 -9 -62 -15 -82
-26 -79 -8 2 -53 4 -101 4 -49 1 -88 4 -88 8 0 8 79 19 135 19 l41 0 12 77 c7
42 16 81 20 87 5 6 17 43 27 81 10 39 22 77 26 85 5 8 20 53 35 100 26 81 71
170 87 170 4 0 7 -2 7 -4z m-429 -586 c10 0 19 -4 19 -10 0 -16 -47 -11 -61 7
-12 15 -12 16 4 10 10 -4 27 -7 38 -7z m36 -239 c57 -12 165 -21 248 -21 43 0
56 -3 45 -10 -32 -21 -360 7 -360 31 0 11 7 11 67 0z m353 -31 c13 -8 13 -10
-2 -10 -9 0 -20 5 -23 10 -8 13 5 13 25 0z m80 0 c0 -5 -4 -10 -10 -10 -5 0
-10 5 -10 10 0 6 5 10 10 10 6 0 10 -4 10 -10z m-277 -226 c56 -12 11 -23 -53
-14 -36 5 -71 10 -77 10 -7 0 -13 5 -13 11 0 10 78 6 143 -7z m94 -20 c-3 -3
-12 -4 -19 -1 -8 3 -5 6 6 6 11 1 17 -2 13 -5z m100 0 c-3 -3 -12 -4 -19 -1
-8 3 -5 6 6 6 11 1 17 -2 13 -5z m70 0 c-3 -3 -12 -4 -19 -1 -8 3 -5 6 6 6 11
1 17 -2 13 -5z m-388 -75 c1 -28 8 -64 16 -80 9 -16 12 -29 9 -29 -4 0 1 -9
11 -20 17 -19 17 -20 -1 -20 -35 0 -69 120 -50 178 4 12 9 22 10 22 2 0 4 -23
5 -51z m-129 -42 c0 -18 -2 -19 -10 -7 -13 20 -13 43 0 35 6 -3 10 -16 10 -28z
m560 -91 c0 -11 -19 -15 -25 -6 -3 5 1 10 9 10 9 0 16 -2 16 -4z m55 -6 c3 -5
1 -10 -4 -10 -6 0 -11 5 -11 10 0 6 2 10 4 10 3 0 8 -4 11 -10z m78 -7 c-7 -2
-19 -2 -25 0 -7 3 -2 5 12 5 14 0 19 -2 13 -5z m111 -1 c2 -4 -13 -7 -35 -7
-21 0 -39 3 -39 7 0 5 15 8 34 8 19 0 37 -3 40 -8z m139 -9 c-7 -2 -21 -2 -30
0 -10 3 -4 5 12 5 17 0 24 -2 18 -5z m50 0 c-7 -2 -19 -2 -25 0 -7 3 -2 5 12
5 14 0 19 -2 13 -5z m57 -3 c0 -5 -2 -10 -4 -10 -3 0 -8 5 -11 10 -3 6 -1 10
4 10 6 0 11 -4 11 -10z m87 -6 c-3 -3 -12 -4 -19 -1 -8 3 -5 6 6 6 11 1 17 -2
13 -5z m-1103 -239 c27 -25 54 -45 60 -45 6 0 24 -7 40 -15 53 -28 329 -116
406 -129 62 -11 69 -14 40 -17 -55 -6 -194 24 -275 61 -11 4 -51 18 -89 29
-96 29 -185 80 -245 141 -57 58 -74 106 -18 52 17 -17 54 -51 81 -77z m525 39
c2 -2 -31 -3 -75 -2 -68 1 -73 2 -34 8 43 6 100 4 109 -6z m81 -10 c0 -2 -9
-4 -21 -4 -11 0 -18 4 -14 10 5 8 35 3 35 -6z m255 -16 c12 -12 -225 0 -238
12 -5 4 45 5 110 3 65 -3 123 -9 128 -15z m88 -5 c-13 -2 -35 -2 -50 0 -16 2
-5 4 22 4 28 0 40 -2 28 -4z m-968 -264 c6 -17 106 -72 123 -67 6 2 102 -21
222 -53 19 -5 106 -14 192 -21 87 -7 155 -14 153 -16 -9 -9 -205 -1 -300 13
-148 21 -375 82 -399 108 -17 18 -35 64 -29 71 9 8 31 -12 38 -35z m816 -159
c32 0 59 -4 59 -9 0 -5 -8 -8 -17 -6 -10 2 -49 4 -88 4 -49 1 -66 4 -55 11 8
5 21 8 28 5 8 -3 40 -5 73 -5z m-845 -18 c21 -33 148 -111 214 -131 36 -11 95
-25 133 -32 37 -7 67 -16 67 -21 0 -11 -25 -10 -78 2 -23 6 -59 13 -80 16 -20
3 -50 12 -67 19 -16 7 -45 18 -63 25 -38 15 -174 140 -152 140 8 0 20 -8 26
-18z m569 -197 l100 -13 -105 5 c-58 3 -114 9 -125 14 -18 7 -17 8 5 7 14 0
70 -6 125 -13z m213 -16 c33 -1 34 -1 12 -8 -32 -10 -92 -2 -84 11 3 5 13 7
21 4 8 -3 31 -6 51 -7z m192 -15 c0 -2 -18 -4 -40 -4 -22 0 -40 3 -40 8 0 4
18 6 40 4 22 -2 40 -6 40 -8z m68 -1 c-10 -2 -26 -2 -35 0 -10 3 -2 5 17 5 19
0 27 -2 18 -5z m-1058 -149 c0 -8 -10 -14 -25 -14 -14 0 -25 5 -25 10 0 6 7
10 15 10 8 0 15 5 15 11 0 5 5 7 10 4 6 -3 10 -13 10 -21z m793 -71 c-13 -2
-33 -2 -45 0 -13 2 -3 4 22 4 25 0 35 -2 23 -4z"/>
<path d="M4328 6733 c7 -3 16 -2 19 1 4 3 -2 6 -13 5 -11 0 -14 -3 -6 -6z"/>
<path d="M3520 5921 c0 -6 5 -13 10 -16 6 -3 10 1 10 9 0 9 -4 16 -10 16 -5 0
-10 -4 -10 -9z"/>
<path d="M4505 5240 c-3 -5 -1 -10 4 -10 6 0 11 5 11 10 0 6 -2 10 -4 10 -3 0
-8 -4 -11 -10z"/>
<path d="M4483 5214 c-7 -3 -9 -12 -6 -20 6 -16 39 -19 48 -4 4 6 12 7 18 3 7
-4 6 0 -2 10 -13 17 -34 20 -58 11z"/>
<path d="M4545 5160 c3 -5 15 -10 25 -10 10 0 20 -6 23 -12 2 -7 7 -11 10 -8
11 10 -8 27 -36 34 -19 4 -26 3 -22 -4z"/>
<path d="M3243 3966 c-23 -11 -43 -24 -43 -28 0 -5 37 -8 83 -7 66 0 78 2 60
11 -13 6 -23 15 -23 19 0 5 -8 12 -17 18 -13 6 -30 3 -60 -13z"/>
<path d="M5516 3858 c6 -17 54 -52 54 -40 0 9 -25 33 -47 46 -8 4 -11 2 -7 -6z"/>
<path d="M3 8175 c8 -47 76 -244 105 -305 40 -82 76 -78 42 5 -4 11 -16 47
-26 80 -21 72 -65 167 -101 215 l-25 35 5 -30z"/>
<path d="M250 8118 c5 -15 18 -44 28 -65 11 -21 31 -78 46 -128 36 -122 68
-183 97 -185 14 0 -43 179 -81 255 -41 84 -110 177 -90 123z"/>
<path d="M0 7582 l0 -79 108 -17 c129 -19 141 -20 148 -3 8 22 -23 83 -60 115
-24 20 -54 34 -93 42 -32 6 -68 14 -80 17 -22 5 -23 3 -23 -75z"/>
<path d="M450 7524 c0 -31 21 -73 48 -98 12 -10 74 -39 139 -66 65 -26 151
-64 192 -84 40 -21 75 -36 77 -34 8 9 -31 114 -48 128 -47 37 -275 143 -353
164 l-55 14 0 -24z"/>
<path d="M0 7252 l0 -79 170 -23 c118 -16 174 -20 181 -13 7 7 5 22 -6 49 -20
49 -51 83 -92 100 -26 11 -207 44 -243 44 -6 0 -10 -32 -10 -78z"/>
<path d="M3632 7118 c-7 -7 -12 -20 -12 -29 0 -10 -4 -21 -10 -24 -14 -9 -13
-78 2 -93 21 -21 29 -13 23 21 -5 24 -1 43 15 70 29 49 15 88 -18 55z"/>
<path d="M0 6923 l0 -79 123 -13 c67 -8 162 -19 210 -27 99 -14 117 -11 117
20 0 30 -47 100 -81 120 -27 16 -155 39 -296 52 l-73 7 0 -80z"/>
<path d="M3670 6944 c0 -20 17 -44 32 -44 15 0 8 27 -12 45 -19 18 -20 17 -20
-1z"/>
<path d="M0 6591 c0 -94 -12 -86 145 -96 55 -4 152 -13 215 -21 168 -20 180
-20 180 12 0 44 -40 102 -85 124 -38 19 -163 37 -377 56 l-78 6 0 -81z"/>
<path d="M730 6530 c0 -32 37 -98 65 -116 14 -9 60 -27 103 -40 77 -23 173
-57 245 -87 36 -15 38 -15 33 1 -3 9 -8 31 -11 47 -4 17 -9 38 -12 49 -6 23
-153 93 -282 136 -112 36 -141 38 -141 10z"/>
<path d="M0 6216 l0 -85 43 -5 c67 -8 507 -40 557 -40 l45 -1 -1 36 c-1 46
-37 97 -80 115 -40 17 -237 41 -399 49 -66 3 -130 8 -142 11 -22 4 -23 2 -23
-80z"/>
<path d="M830 6166 c0 -33 43 -106 74 -125 17 -11 60 -27 95 -36 36 -9 112
-34 169 -56 58 -21 106 -39 108 -39 9 0 -10 97 -22 116 -24 39 -267 135 -380
151 -37 5 -44 3 -44 -11z"/>
<path d="M0 5872 l0 -89 198 -6 c108 -3 270 -11 359 -18 89 -6 169 -9 178 -5
42 16 -15 126 -78 151 -39 16 -271 38 -524 50 l-133 6 0 -89z"/>
<path d="M932 5847 c-15 -18 12 -87 46 -118 16 -15 61 -36 103 -48 41 -12 122
-39 181 -60 59 -21 110 -36 112 -34 2 3 1 17 -4 31 -5 15 -11 44 -15 65 -6 36
-11 41 -68 67 -65 29 -260 93 -314 103 -19 4 -35 1 -41 -6z"/>
<path d="M0 5524 l0 -97 53 7 c28 3 180 0 337 -6 395 -17 440 -17 453 4 8 12
6 27 -8 58 -22 49 -57 76 -116 89 -48 11 -299 27 -556 36 l-163 5 0 -96z"/>
<path d="M1024 5515 c-12 -31 8 -89 40 -120 24 -23 53 -35 112 -49 43 -10 125
-34 182 -53 57 -19 106 -33 108 -30 3 2 0 16 -6 31 -5 15 -10 44 -10 65 0 33
-5 40 -37 58 -60 33 -318 113 -365 113 -10 0 -21 -7 -24 -15z"/>
<path d="M0 5169 l0 -101 32 6 c78 14 344 18 599 7 152 -6 284 -9 293 -5 23 9
20 62 -4 102 -35 57 -80 69 -295 81 -104 6 -288 11 -407 11 l-218 0 0 -101z"/>
</g>
</svg>
