<svg xmlns="http://www.w3.org/2000/svg" fill="none" height="512" viewBox="0 0 36 36" width="512"><g id="36 Multicolor / Flag / mc_36_flag_spain"><g id="mc_36_flag_Spain"><path id="Path" d="m.00000892 18.0001c-.00212985 2.137.37715008 4.2572 1.12000108 6.261l16.87999 1.565 16.88-1.565c.7429-2.0038 1.1221-4.124 1.12-6.261.0021-2.137-.3771-4.2573-1.12-6.261l-16.88-1.565-16.87999 1.566c-.742734 2.0034-1.12201193 4.1233-1.12000108 6.26z" fill="#ffda44"></path><path id="Shape" clip-rule="evenodd" d="m18 0c7.74 0 14.337 4.885 16.88 11.74h-33.76c2.543-6.855 9.14-11.74 16.88-11.74zm0 36c-7.74 0-14.337-4.885-16.88-11.74h33.76c-2.543 6.855-9.14 11.74-16.88 11.74z" fill="#d80027" fill-rule="evenodd"></path></g></g></svg>